<svg xmlns="http://www.w3.org/2000/svg" width="1200" height="630" viewBox="0 0 1200 630" role="img" aria-label="Anduma Bus - GTT Torino Live">
  <defs>
    <linearGradient id="bg" x1="0" y1="0" x2="1200" y2="630" gradientUnits="userSpaceOnUse">
      <stop stop-color="#151526"/>
      <stop offset="1" stop-color="#0f0f1a"/>
    </linearGradient>
    <linearGradient id="red" x1="382" y1="142" x2="802" y2="505" gradientUnits="userSpaceOnUse">
      <stop stop-color="#f35a50"/>
      <stop offset="1" stop-color="#b8251c"/>
    </linearGradient>
  </defs>
  <rect width="1200" height="630" fill="url(#bg)"/>
  <circle cx="1000" cy="120" r="210" fill="#e63329" opacity=".08"/>
  <circle cx="140" cy="530" r="260" fill="#f5a623" opacity=".06"/>
  <rect x="92" y="90" width="1016" height="450" rx="42" fill="#1a1a2e" stroke="rgba(255,255,255,.1)" stroke-width="2"/>
  <rect x="136" y="134" width="164" height="164" rx="40" fill="url(#red)"/>
  <path fill="#fff" d="M178 246v14c0 3.1 2.4 5.5 5.5 5.5h11c3.1 0 5.5-2.4 5.5-5.5v-12h62v12c0 3.1 2.4 5.5 5.5 5.5h11c3.1 0 5.5-2.4 5.5-5.5v-14c5.3-4.2 9-10.7 9-17.8V160c0-31-27.6-35.5-62-35.5S169.5 129 169.5 160v68.7c0 7.1 3.2 13.6 8.5 17.3Zm17.7-82.1c0-5.1 3.8-8.9 8.9-8.9h53.2c5.1 0 8.9 3.8 8.9 8.9v26.6h-71v-26.6Zm3.4 64.3a12.2 12.2 0 1 1 0-24.4 12.2 12.2 0 0 1 0 24.4Zm64.4 0a12.2 12.2 0 1 1 0-24.4 12.2 12.2 0 0 1 0 24.4Z"/>
  <text x="346" y="210" fill="#f0f0f5" font-family="Inter, Segoe UI, Arial, sans-serif" font-size="72" font-weight="800">Anduma Bus</text>
  <text x="350" y="278" fill="#f35a50" font-family="Inter, Segoe UI, Arial, sans-serif" font-size="38" font-weight="700">GTT Torino Live</text>
  <text x="350" y="354" fill="#a0a0c0" font-family="Inter, Segoe UI, Arial, sans-serif" font-size="30" font-weight="500">Orari fermate, percorsi e mezzi in tempo reale</text>
  <text x="350" y="410" fill="#a0a0c0" font-family="Inter, Segoe UI, Arial, sans-serif" font-size="24" font-weight="500">Dati GTT e MATO 5T - servizio non ufficiale</text>
  <rect x="350" y="454" width="210" height="48" rx="24" fill="rgba(46,204,113,.14)" stroke="rgba(46,204,113,.28)"/>
  <circle cx="382" cy="478" r="7" fill="#2ecc71"/>
  <text x="404" y="487" fill="#2ecc71" font-family="Inter, Segoe UI, Arial, sans-serif" font-size="20" font-weight="700">Live Torino</text>
</svg>
